<mxfile host="app.diagrams.net" agent="Mozilla/5.0 (Macintosh; Intel Mac OS X 10_15_7) AppleWebKit/537.36 (KHTML, like Gecko) Chrome/130.0.0.0 Safari/537.36" version="24.8.0">
  <diagram name="Сторінка-1" id="aXM_fe3pJqtRybAySff_">
    <mxGraphModel dx="97" dy="3789" grid="1" gridSize="10" guides="1" tooltips="1" connect="1" arrows="1" fold="1" page="1" pageScale="1" pageWidth="827" pageHeight="1169" math="0" shadow="0">
      <root>
        <mxCell id="0" />
        <mxCell id="1" parent="0" />
        <mxCell id="1-ibB1fW5mCKuZ8-OVEi-38" value="" style="rounded=1;whiteSpace=wrap;html=1;fillColor=#f5f5f5;fontColor=#333333;strokeColor=#666666;" vertex="1" parent="1">
          <mxGeometry x="3190" y="-520" width="370" height="840" as="geometry" />
        </mxCell>
        <mxCell id="1-ibB1fW5mCKuZ8-OVEi-37" value="" style="rounded=1;whiteSpace=wrap;html=1;fillColor=#f5f5f5;fontColor=#333333;strokeColor=#666666;" vertex="1" parent="1">
          <mxGeometry x="2740" y="-527.12" width="370" height="840" as="geometry" />
        </mxCell>
        <mxCell id="1-ibB1fW5mCKuZ8-OVEi-36" value="" style="rounded=1;whiteSpace=wrap;html=1;fillColor=#f5f5f5;fontColor=#333333;strokeColor=#666666;" vertex="1" parent="1">
          <mxGeometry x="2290" y="-515" width="370" height="840" as="geometry" />
        </mxCell>
        <mxCell id="1-ibB1fW5mCKuZ8-OVEi-35" value="" style="rounded=1;whiteSpace=wrap;html=1;fillColor=#f5f5f5;fontColor=#333333;strokeColor=#666666;" vertex="1" parent="1">
          <mxGeometry x="1850" y="-520" width="370" height="840" as="geometry" />
        </mxCell>
        <mxCell id="1-ibB1fW5mCKuZ8-OVEi-50" style="edgeStyle=orthogonalEdgeStyle;rounded=0;orthogonalLoop=1;jettySize=auto;html=1;" edge="1" parent="1" source="1-ibB1fW5mCKuZ8-OVEi-9">
          <mxGeometry relative="1" as="geometry">
            <mxPoint x="2740" y="-122.07692307692332" as="targetPoint" />
          </mxGeometry>
        </mxCell>
        <mxCell id="1-ibB1fW5mCKuZ8-OVEi-9" value="" style="image;aspect=fixed;perimeter=ellipsePerimeter;html=1;align=center;shadow=0;dashed=0;spacingTop=3;image=img/lib/active_directory/security.svg;" vertex="1" parent="1">
          <mxGeometry x="2441.05" y="-198.62" width="95.6" height="151.75" as="geometry" />
        </mxCell>
        <mxCell id="1-ibB1fW5mCKuZ8-OVEi-54" style="edgeStyle=orthogonalEdgeStyle;rounded=0;orthogonalLoop=1;jettySize=auto;html=1;entryX=0;entryY=0.5;entryDx=0;entryDy=0;" edge="1" parent="1" source="1-ibB1fW5mCKuZ8-OVEi-10" target="1-ibB1fW5mCKuZ8-OVEi-52">
          <mxGeometry relative="1" as="geometry" />
        </mxCell>
        <mxCell id="1-ibB1fW5mCKuZ8-OVEi-55" style="edgeStyle=orthogonalEdgeStyle;rounded=0;orthogonalLoop=1;jettySize=auto;html=1;entryX=0;entryY=0.5;entryDx=0;entryDy=0;" edge="1" parent="1" source="1-ibB1fW5mCKuZ8-OVEi-10" target="1-ibB1fW5mCKuZ8-OVEi-53">
          <mxGeometry relative="1" as="geometry" />
        </mxCell>
        <mxCell id="1-ibB1fW5mCKuZ8-OVEi-10" value="" style="image;aspect=fixed;perimeter=ellipsePerimeter;html=1;align=center;shadow=0;dashed=0;spacingTop=3;image=img/lib/active_directory/internet_cloud.svg;" vertex="1" parent="1">
          <mxGeometry x="2826.15" y="-177.12" width="174.6" height="110" as="geometry" />
        </mxCell>
        <mxCell id="1-ibB1fW5mCKuZ8-OVEi-11" value="&lt;font style=&quot;font-size: 24px;&quot;&gt;Salesforce CRM&lt;/font&gt;" style="text;html=1;align=center;verticalAlign=middle;whiteSpace=wrap;rounded=0;" vertex="1" parent="1">
          <mxGeometry x="2826.15" y="-62.120000000000005" width="197.7" height="25" as="geometry" />
        </mxCell>
        <mxCell id="1-ibB1fW5mCKuZ8-OVEi-12" value="" style="image;aspect=fixed;perimeter=ellipsePerimeter;html=1;align=center;shadow=0;dashed=0;spacingTop=3;image=img/lib/active_directory/web_server.svg;" vertex="1" parent="1">
          <mxGeometry x="3322.15" y="-343" width="111.2" height="139" as="geometry" />
        </mxCell>
        <mxCell id="1-ibB1fW5mCKuZ8-OVEi-13" value="&lt;font style=&quot;font-size: 24px;&quot;&gt;Map API Server&lt;/font&gt;" style="text;html=1;align=center;verticalAlign=middle;whiteSpace=wrap;rounded=0;" vertex="1" parent="1">
          <mxGeometry x="3271.15" y="-193" width="197.7" height="25" as="geometry" />
        </mxCell>
        <mxCell id="1-ibB1fW5mCKuZ8-OVEi-15" value="&lt;span style=&quot;font-size: 24px;&quot;&gt;Web Client&lt;/span&gt;" style="text;html=1;align=center;verticalAlign=middle;whiteSpace=wrap;rounded=0;" vertex="1" parent="1">
          <mxGeometry x="1931.65" y="120" width="197.7" height="25" as="geometry" />
        </mxCell>
        <mxCell id="1-ibB1fW5mCKuZ8-OVEi-17" value="&lt;span style=&quot;font-size: 24px;&quot;&gt;Tablet client&lt;/span&gt;" style="text;html=1;align=center;verticalAlign=middle;whiteSpace=wrap;rounded=0;" vertex="1" parent="1">
          <mxGeometry x="1931.65" y="-145" width="197.7" height="25" as="geometry" />
        </mxCell>
        <mxCell id="1-ibB1fW5mCKuZ8-OVEi-46" style="edgeStyle=orthogonalEdgeStyle;rounded=0;orthogonalLoop=1;jettySize=auto;html=1;exitX=1;exitY=0.5;exitDx=0;exitDy=0;" edge="1" parent="1" source="1-ibB1fW5mCKuZ8-OVEi-18" target="1-ibB1fW5mCKuZ8-OVEi-43">
          <mxGeometry relative="1" as="geometry" />
        </mxCell>
        <mxCell id="1-ibB1fW5mCKuZ8-OVEi-18" value="" style="image;aspect=fixed;perimeter=ellipsePerimeter;html=1;align=center;shadow=0;dashed=0;spacingTop=3;image=img/lib/active_directory/tablet_pc.svg;" vertex="1" parent="1">
          <mxGeometry x="1986.4099999999999" y="-295" width="102.2" height="140" as="geometry" />
        </mxCell>
        <mxCell id="1-ibB1fW5mCKuZ8-OVEi-19" value="&lt;span style=&quot;font-size: 24px;&quot;&gt;Auth Provider&lt;/span&gt;" style="text;html=1;align=center;verticalAlign=middle;whiteSpace=wrap;rounded=0;" vertex="1" parent="1">
          <mxGeometry x="2390" y="-40.62" width="197.7" height="25" as="geometry" />
        </mxCell>
        <mxCell id="1-ibB1fW5mCKuZ8-OVEi-47" style="edgeStyle=orthogonalEdgeStyle;rounded=0;orthogonalLoop=1;jettySize=auto;html=1;entryX=0;entryY=0.5;entryDx=0;entryDy=0;" edge="1" parent="1" source="1-ibB1fW5mCKuZ8-OVEi-23" target="1-ibB1fW5mCKuZ8-OVEi-43">
          <mxGeometry relative="1" as="geometry">
            <mxPoint x="2340" y="-86.86999999999989" as="targetPoint" />
          </mxGeometry>
        </mxCell>
        <mxCell id="1-ibB1fW5mCKuZ8-OVEi-23" value="" style="image;aspect=fixed;perimeter=ellipsePerimeter;html=1;align=center;shadow=0;dashed=0;spacingTop=3;image=img/lib/active_directory/internet_globe.svg;" vertex="1" parent="1">
          <mxGeometry x="1970" y="-20" width="121" height="121" as="geometry" />
        </mxCell>
        <mxCell id="1-ibB1fW5mCKuZ8-OVEi-26" value="" style="image;aspect=fixed;perimeter=ellipsePerimeter;html=1;align=center;shadow=0;dashed=0;spacingTop=3;image=img/lib/active_directory/database.svg;" vertex="1" parent="1">
          <mxGeometry x="3311.75" y="-48" width="136.49" height="101" as="geometry" />
        </mxCell>
        <mxCell id="1-ibB1fW5mCKuZ8-OVEi-31" value="&lt;span style=&quot;font-size: 24px;&quot;&gt;Cloud Storage&lt;/span&gt;" style="text;html=1;align=center;verticalAlign=middle;whiteSpace=wrap;rounded=0;" vertex="1" parent="1">
          <mxGeometry x="3281.15" y="53" width="197.7" height="25" as="geometry" />
        </mxCell>
        <mxCell id="1-ibB1fW5mCKuZ8-OVEi-43" value="&lt;font style=&quot;font-size: 24px;&quot;&gt;API&lt;/font&gt;" style="rounded=1;whiteSpace=wrap;html=1;" vertex="1" parent="1">
          <mxGeometry x="2350" y="-155" width="80" height="80" as="geometry" />
        </mxCell>
        <mxCell id="1-ibB1fW5mCKuZ8-OVEi-51" value="&lt;font style=&quot;font-size: 24px;&quot;&gt;API&lt;/font&gt;" style="rounded=1;whiteSpace=wrap;html=1;" vertex="1" parent="1">
          <mxGeometry x="2740" y="-162.12" width="80" height="80" as="geometry" />
        </mxCell>
        <mxCell id="1-ibB1fW5mCKuZ8-OVEi-56" style="edgeStyle=orthogonalEdgeStyle;rounded=0;orthogonalLoop=1;jettySize=auto;html=1;entryX=1;entryY=0.5;entryDx=0;entryDy=0;" edge="1" parent="1" source="1-ibB1fW5mCKuZ8-OVEi-52" target="1-ibB1fW5mCKuZ8-OVEi-10">
          <mxGeometry relative="1" as="geometry" />
        </mxCell>
        <mxCell id="1-ibB1fW5mCKuZ8-OVEi-52" value="&lt;font style=&quot;font-size: 24px;&quot;&gt;API&lt;/font&gt;" style="rounded=1;whiteSpace=wrap;html=1;" vertex="1" parent="1">
          <mxGeometry x="3201.15" y="-295" width="80" height="80" as="geometry" />
        </mxCell>
        <mxCell id="1-ibB1fW5mCKuZ8-OVEi-57" style="edgeStyle=orthogonalEdgeStyle;rounded=0;orthogonalLoop=1;jettySize=auto;html=1;entryX=1;entryY=0.5;entryDx=0;entryDy=0;" edge="1" parent="1" source="1-ibB1fW5mCKuZ8-OVEi-53" target="1-ibB1fW5mCKuZ8-OVEi-10">
          <mxGeometry relative="1" as="geometry" />
        </mxCell>
        <mxCell id="1-ibB1fW5mCKuZ8-OVEi-53" value="&lt;font style=&quot;font-size: 24px;&quot;&gt;API&lt;/font&gt;" style="rounded=1;whiteSpace=wrap;html=1;" vertex="1" parent="1">
          <mxGeometry x="3201.15" y="-46.870000000000005" width="80" height="80" as="geometry" />
        </mxCell>
      </root>
    </mxGraphModel>
  </diagram>
</mxfile>
